<?xml version="1.0" encoding="UTF-8" standalone="no"?>
<!-- Created with Inkscape (http://www.inkscape.org/) -->

<svg
   width="210mm"
   height="297mm"
   viewBox="0 0 210 297"
   version="1.1"
   id="svg5"
   sodipodi:docname="mouse 2.svg"
   inkscape:version="1.1.1 (26b7af14f2, 2022-01-19)"
   xmlns:inkscape="http://www.inkscape.org/namespaces/inkscape"
   xmlns:sodipodi="http://sodipodi.sourceforge.net/DTD/sodipodi-0.dtd"
   xmlns="http://www.w3.org/2000/svg"
   xmlns:svg="http://www.w3.org/2000/svg"
   xmlns:ooo="http://xml.openoffice.org/svg/export">
  <sodipodi:namedview
     id="namedview7"
     pagecolor="#505050"
     bordercolor="#eeeeee"
     borderopacity="1"
     inkscape:pageshadow="0"
     inkscape:pageopacity="0"
     inkscape:pagecheckerboard="0"
     inkscape:document-units="mm"
     showgrid="false"
     inkscape:zoom="2.5620932"
     inkscape:cx="389.3301"
     inkscape:cy="415.28544"
     inkscape:window-width="1920"
     inkscape:window-height="1169"
     inkscape:window-x="0"
     inkscape:window-y="0"
     inkscape:window-maximized="1"
     inkscape:current-layer="layer1"
     showguides="true"
     inkscape:guide-bbox="true">
    <sodipodi:guide
       position="100,210.87414"
       orientation="-1,0"
       id="guide3071"
       inkscape:label=""
       inkscape:locked="false"
       inkscape:color="rgb(0,0,255)" />
    <sodipodi:guide
       position="140,204.36823"
       orientation="-1,0"
       id="guide3073"
       inkscape:label=""
       inkscape:locked="false"
       inkscape:color="rgb(0,0,255)" />
    <sodipodi:guide
       position="134.2189,199.60848"
       orientation="0,-1"
       id="guide3174" />
    <sodipodi:guide
       position="120,235.48011"
       orientation="-1,0"
       id="guide6722"
       inkscape:label=""
       inkscape:locked="false"
       inkscape:color="rgb(0,0,255)" />
    <sodipodi:guide
       position="115,229.92075"
       orientation="-1,0"
       id="guide6804"
       inkscape:label=""
       inkscape:locked="false"
       inkscape:color="rgb(0,0,255)" />
    <sodipodi:guide
       position="125,229.15265"
       orientation="-1,0"
       id="guide6806"
       inkscape:label=""
       inkscape:locked="false"
       inkscape:color="rgb(0,0,255)" />
    <sodipodi:guide
       position="120,221.40752"
       orientation="0,-1"
       id="guide7660" />
    <sodipodi:guide
       position="120,155.52226"
       orientation="0,-1"
       id="guide7662" />
    <sodipodi:guide
       position="120,210.56433"
       orientation="0,-1"
       id="guide7683" />
    <sodipodi:guide
       position="120,188.67142"
       orientation="0,-1"
       id="guide7685" />
  </sodipodi:namedview>
  <defs
     id="defs2">
    <clipPath
       id="presentation_clip_path"
       clipPathUnits="userSpaceOnUse">
      <rect
         x="0"
         y="0"
         width="21000"
         height="29700"
         id="rect583" />
    </clipPath>
    <clipPath
       id="presentation_clip_path_shrink"
       clipPathUnits="userSpaceOnUse">
      <rect
         x="21"
         y="29"
         width="20958"
         height="29641"
         id="rect586" />
    </clipPath>
    <g
       ooo:slide="id1"
       ooo:id-list="id3 id4 id5 id6 id7 id8 id9"
       id="g591" />
    <g
       id="bullet-char-template-57356"
       transform="scale(0.00048828125,-0.00048828125)">
      <path
         d="M 580,1141 L 1163,571 580,0 -4,571 580,1141 Z"
         id="path595" />
    </g>
    <g
       id="bullet-char-template-57354"
       transform="scale(0.00048828125,-0.00048828125)">
      <path
         d="M 8,1128 L 1137,1128 1137,0 8,0 8,1128 Z"
         id="path598" />
    </g>
    <g
       id="bullet-char-template-10146"
       transform="scale(0.00048828125,-0.00048828125)">
      <path
         d="M 174,0 L 602,739 174,1481 1456,739 174,0 Z M 1358,739 L 309,1346 659,739 1358,739 Z"
         id="path601" />
    </g>
    <g
       id="bullet-char-template-10132"
       transform="scale(0.00048828125,-0.00048828125)">
      <path
         d="M 2015,739 L 1276,0 717,0 1260,543 174,543 174,936 1260,936 717,1481 1274,1481 2015,739 Z"
         id="path604" />
    </g>
    <g
       id="bullet-char-template-10007"
       transform="scale(0.00048828125,-0.00048828125)">
      <path
         d="M 0,-2 C -7,14 -16,27 -25,37 L 356,567 C 262,823 215,952 215,954 215,979 228,992 255,992 264,992 276,990 289,987 310,991 331,999 354,1012 L 381,999 492,748 772,1049 836,1024 860,1049 C 881,1039 901,1025 922,1006 886,937 835,863 770,784 769,783 710,716 594,584 L 774,223 C 774,196 753,168 711,139 L 727,119 C 717,90 699,76 672,76 641,76 570,178 457,381 L 164,-76 C 142,-110 111,-127 72,-127 30,-127 9,-110 8,-76 1,-67 -2,-52 -2,-32 -2,-23 -1,-13 0,-2 Z"
         id="path607" />
    </g>
    <g
       id="bullet-char-template-10004"
       transform="scale(0.00048828125,-0.00048828125)">
      <path
         d="M 285,-33 C 182,-33 111,30 74,156 52,228 41,333 41,471 41,549 55,616 82,672 116,743 169,778 240,778 293,778 328,747 346,684 L 369,508 C 377,444 397,411 428,410 L 1163,1116 C 1174,1127 1196,1133 1229,1133 1271,1133 1292,1118 1292,1087 L 1292,965 C 1292,929 1282,901 1262,881 L 442,47 C 390,-6 338,-33 285,-33 Z"
         id="path610" />
    </g>
    <g
       id="bullet-char-template-9679"
       transform="scale(0.00048828125,-0.00048828125)">
      <path
         d="M 813,0 C 632,0 489,54 383,161 276,268 223,411 223,592 223,773 276,916 383,1023 489,1130 632,1184 813,1184 992,1184 1136,1130 1245,1023 1353,916 1407,772 1407,592 1407,412 1353,268 1245,161 1136,54 992,0 813,0 Z"
         id="path613" />
    </g>
    <g
       id="bullet-char-template-8226"
       transform="scale(0.00048828125,-0.00048828125)">
      <path
         d="M 346,457 C 273,457 209,483 155,535 101,586 74,649 74,723 74,796 101,859 155,911 209,963 273,989 346,989 419,989 480,963 531,910 582,859 608,796 608,723 608,648 583,586 532,535 482,483 420,457 346,457 Z"
         id="path616" />
    </g>
    <g
       id="bullet-char-template-8211"
       transform="scale(0.00048828125,-0.00048828125)">
      <path
         d="M -4,459 L 1135,459 1135,606 -4,606 -4,459 Z"
         id="path619" />
    </g>
    <g
       id="bullet-char-template-61548"
       transform="scale(0.00048828125,-0.00048828125)">
      <path
         d="M 173,740 C 173,903 231,1043 346,1159 462,1274 601,1332 765,1332 928,1332 1067,1274 1183,1159 1299,1043 1357,903 1357,740 1357,577 1299,437 1183,322 1067,206 928,148 765,148 601,148 462,206 346,322 231,437 173,577 173,740 Z"
         id="path622" />
    </g>
  </defs>
  <g
     inkscape:label="Calque 1"
     inkscape:groupmode="layer"
     id="layer1">
    <path
       style="display:inline;fill:#45a1b9;fill-opacity:1;fill-rule:evenodd;stroke:none;stroke-width:4;stroke-linecap:butt;stroke-linejoin:miter;stroke-miterlimit:4;stroke-dasharray:none;stroke-opacity:1"
       d="m 140,97.39152 v -6.667707 c 0,-8.382757 -6.74857,-15.131327 -15.13133,-15.13133 L 120,75.592481 v 10.84319 l 0.4075,-5e-6 c 2.54425,0 4.5925,2.268954 4.5925,5.087341 v 5.868513 z"
       id="path3209-5-2"
       sodipodi:nodetypes="cssccsscc"
       inkscape:label="button_left" />
    <path
       style="display:inline;fill:#45a1b9;fill-opacity:1;fill-rule:evenodd;stroke:none;stroke-width:4;stroke-linecap:butt;stroke-linejoin:miter;stroke-miterlimit:4;stroke-dasharray:none;stroke-opacity:1"
       d="m 99.999997,97.39152 v -6.667707 c 0,-8.382757 6.748573,-15.131327 15.131333,-15.13133 l 4.86867,-2e-6 v 10.84319 l -0.4075,-5e-6 c -2.54425,0 -4.5925,2.268954 -4.5925,5.087341 v 5.868513 z"
       id="path3209-5"
       sodipodi:nodetypes="cssccsscc"
       inkscape:label="button_right" />
    <path
       style="fill:#45a1b9;fill-opacity:1;stroke:#383838;stroke-width:2.61155;stroke-linecap:round;stroke-linejoin:round;stroke-miterlimit:4;stroke-dasharray:none;stroke-opacity:1"
       d="m 120,123.06865 6.38197,-15.00523 c 0,0 -4.1222,3.60514 -6.57292,3.57271 -2.33762,-0.031 -6.19102,-3.57271 -6.19102,-3.57271 z"
       id="path2089-3"
       sodipodi:nodetypes="ccacc"
       inkscape:label="wheel_down" />
    <rect
       style="display:inline;fill:none;fill-rule:evenodd;stroke:#383838;stroke-width:4;stroke-linejoin:round;stroke-miterlimit:4;stroke-dasharray:none;stroke-opacity:1"
       id="rect1113"
       width="40"
       height="65.885262"
       x="100"
       y="75.592484"
       ry="15.13133"
       inkscape:label="mouse" />
    <path
       style="display:inline;fill:none;fill-rule:evenodd;stroke:#383838;stroke-width:4;stroke-linecap:butt;stroke-linejoin:miter;stroke-miterlimit:4;stroke-dasharray:none;stroke-opacity:1"
       d="m 100,97.391521 h 15"
       id="path3209"
       sodipodi:nodetypes="cc" />
    <path
       style="display:inline;fill:none;fill-rule:evenodd;stroke:#383838;stroke-width:4;stroke-linecap:butt;stroke-linejoin:miter;stroke-miterlimit:4;stroke-dasharray:none;stroke-opacity:1"
       d="m 125,97.391521 h 15"
       id="path3209-6"
       sodipodi:nodetypes="cc" />
    <path
       style="display:inline;fill:none;fill-rule:evenodd;stroke:#383838;stroke-width:4;stroke-linecap:butt;stroke-linejoin:miter;stroke-miterlimit:4;stroke-dasharray:none;stroke-opacity:1"
       d="m 120,75.592481 v 10.84319"
       id="path3209-7"
       sodipodi:nodetypes="cc" />
    <rect
       style="display:inline;fill:#45a1b9;fill-opacity:1;fill-rule:evenodd;stroke:#383838;stroke-width:4;stroke-linejoin:round;stroke-miterlimit:4;stroke-dasharray:none;stroke-opacity:1"
       id="rect1113-3"
       width="9.9999952"
       height="19.039572"
       x="115"
       y="86.435669"
       ry="5.0873404"
       rx="4.5924983"
       inkscape:label="wheel_button" />
    <path
       style="fill:#45a1b9;fill-opacity:1;stroke:#383838;stroke-width:2.61155;stroke-linecap:round;stroke-linejoin:round;stroke-miterlimit:4;stroke-dasharray:none;stroke-opacity:1"
       d="m 120,68.394835 6.38197,15.005225 c 0,0 -4.1222,-3.605135 -6.57292,-3.572712 -2.33762,0.031 -6.19102,3.572712 -6.19102,3.572712 z"
       id="path2089"
       sodipodi:nodetypes="ccacc"
       inkscape:label="wheel_up" />
  </g>
</svg>
